<?xml version="1.0" encoding="utf-8"?>
<!-- Generator: Adobe Illustrator 15.0.0, SVG Export Plug-In . SVG Version: 6.00 Build 0)  -->
<!DOCTYPE svg PUBLIC "-//W3C//DTD SVG 1.1//EN" "http://www.w3.org/Graphics/SVG/1.1/DTD/svg11.dtd">
<svg version="1.1" id="Layer_1" focusable="false" xmlns="http://www.w3.org/2000/svg" xmlns:xlink="http://www.w3.org/1999/xlink"
	 x="0px" y="0px" width="595.279px" height="841.891px" viewBox="0 0 595.279 841.891" enable-background="new 0 0 595.279 841.891"
	 xml:space="preserve">
<path d="M508.861,317.98h-7.283v-43.701c0-40.788-90.316-72.835-203.938-72.835c-113.621,0-203.936,32.047-203.936,72.835v43.701
	H86.42c-12.063,0-21.851,9.778-21.851,21.85v72.835c0,12.063,9.787,21.851,21.851,21.851h7.283v145.668
	c0,16.088,13.046,29.134,29.134,29.134v29.134c0,16.088,13.046,29.134,29.134,29.134h29.134c16.088,0,29.134-13.046,29.134-29.134
	v-29.134h174.804v29.134c0,16.088,13.046,29.134,29.133,29.134h29.135c16.087,0,29.133-13.046,29.133-29.134v-29.134h5.827
	c14.566,0,23.308-11.653,23.308-23.307V434.516h7.283c12.063,0,21.85-9.788,21.85-21.851V339.83
	C530.71,327.758,520.923,317.98,508.861,317.98z M166.538,565.616c-16.088,0-29.134-13.046-29.134-29.133
	c0-16.088,13.046-29.134,29.134-29.134c16.087,0,29.133,13.046,29.133,29.134C195.671,552.57,182.625,565.616,166.538,565.616z
	 M181.105,463.649c-16.088,0-29.134-13.047-29.134-29.134V317.98c0-16.087,13.046-29.134,29.134-29.134h233.07
	c16.087,0,29.135,13.047,29.135,29.134v116.536c0,16.087-13.048,29.134-29.135,29.134H181.105z M428.741,565.616
	c-16.087,0-29.133-13.046-29.133-29.133c0-16.088,13.046-29.134,29.133-29.134s29.135,13.046,29.135,29.134
	C457.876,552.57,444.828,565.616,428.741,565.616z"/>
<g>
	<polygon points="248.06,172.798 297.913,86.445 347.777,172.798 	"/>
</g>
</svg>
