<svg aria-hidden="true" focusable="false" data-prefix="fas" data-icon="bus" class="svg-inline--fa fa-bus fa-w-16" role="img" xmlns="http://www.w3.org/2000/svg" viewBox="0 0 700 700"><path d="M508.861,219.874h-7.283v-43.701c0-40.788-90.316-72.835-203.938-72.835c-113.621,0-203.936,32.047-203.936,72.835v43.701
	H86.42c-12.063,0-21.851,9.778-21.851,21.85v72.835c0,12.063,9.787,21.851,21.851,21.851h7.283v145.668
	c0,16.088,13.046,29.133,29.134,29.133v29.135c0,16.088,13.046,29.133,29.134,29.133h29.134c16.088,0,29.134-13.045,29.134-29.133
	v-29.135h174.804v29.135c0,16.088,13.046,29.133,29.133,29.133h29.135c16.087,0,29.133-13.045,29.133-29.133v-29.135h5.827
	c14.566,0,23.308-11.652,23.308-23.307V336.41h7.283c12.063,0,21.85-9.788,21.85-21.851v-72.835
	C530.71,229.652,520.923,219.874,508.861,219.874z M166.538,467.51c-16.088,0-29.134-13.045-29.134-29.133
	s13.046-29.133,29.134-29.133c16.087,0,29.133,13.045,29.133,29.133S182.625,467.51,166.538,467.51z M181.105,365.543
	c-16.088,0-29.134-13.047-29.134-29.134V219.874c0-16.087,13.046-29.134,29.134-29.134h233.07c16.087,0,29.135,13.047,29.135,29.134
	V336.41c0,16.087-13.048,29.134-29.135,29.134H181.105z M428.741,467.51c-16.087,0-29.133-13.045-29.133-29.133
	s13.046-29.133,29.133-29.133s29.135,13.045,29.135,29.133S444.828,467.51,428.741,467.51z"/>
<g>
	<polygon points="307.777,581.232 297.923,667.585 288.06,581.232 	"/>
</g></svg>